Patient4_TMGait_0pt3_03_right_09_GRF.mot
version=1
nRows=26
nColumns=19
inDegrees=no
endheader
time	F1x	F1y	F1z	M1x	M1y	M1z	F2x	F2y	F2z	M2x	M2y	M2z	EC1x	EC1y	EC1z	EC2x	EC2y	EC2z
17.05	-22.9911	773.6334	61.237	-284.2673	-70.762	822.4647	3.802	18.5923	-4.1779	6.1516	3.0236	16.9186	-0.0592	0.0182	-0.0073	-0.0462	0.0165	0.9585
17.0689	-22.3617	785.219	61.2203	-288.222	-70.2513	832.5691	2.2546	13.6866	-2.9642	4.5524	2.3038	12.4998	-0.0592	0.0182	-0.0073	-0.0462	0.0165	0.9585
17.0879	-21.7667	797.8221	61.1161	-292.6662	-69.6087	843.0117	1.0526	9.1736	-1.8544	3.0727	1.5851	8.4554	-0.0592	0.0182	-0.0073	-0.0462	0.0165	0.9585
17.1068	-21.0308	810.329	60.858	-297.2402	-68.7082	852.5709	0.21924	5.4968	-0.95479	1.8627	0.9609	5.1753	-0.0592	0.0182	-0.0073	-0.0462	0.0165	0.9585
17.1257	-19.9004	821.5964	60.3833	-301.5461	-67.3968	860.022	-0.30003	2.797	-0.2965	0.97219	0.47682	2.7805	-0.0592	0.0182	-0.0073	-0.0462	0.0165	0.9585
17.1446	-18.1414	830.5413	59.6599	-305.1818	-65.5601	864.2527	-0.57692	1.0074	0.13787	0.38147	0.13693	1.2069	-0.0592	0.0182	-0.0073	-0.0462	0.0165	0.9585
17.1636	-15.5935	836.1782	58.6938	-307.7566	-63.1489	864.3276	-0.68634	-0.047731	0.38799	0.034114	-0.076403	0.29353	-0.0592	0.0182	-0.0073	-0.0462	0.0165	0.9585
17.1825	-12.2095	837.6852	57.523	-308.9193	-60.1874	859.5547	-0.69436	-0.58731	0.49981	-0.14161	-0.19097	-0.15804	-0.0592	0.0182	-0.0073	-0.0462	0.0165	0.9585
17.2014	-8.0674	834.4815	56.2081	-308.3934	-56.7691	849.5553	-0.65391	-0.83023	0.51571	-0.21977	-0.22847	-0.35392	-0.0592	0.0182	-0.0073	-0.0462	0.0165	0.9585
17.2204	-3.3269	826.3562	54.8199	-306.0391	-53.0269	834.3521	-0.60043	-0.97784	0.47473	-0.27097	-0.21234	-0.49922	-0.0592	0.0182	-0.0073	-0.0462	0.0165	0.9585
17.2393	1.8304	813.6522	53.4087	-301.9346	-49.0822	814.5011	-0.55225	-1.2105	0.40979	-0.35955	-0.16945	-0.77277	-0.0592	0.0182	-0.0073	-0.0462	0.0165	0.9585
17.2582	7.2453	797.3753	52.0023	-296.4239	-45.0266	791.1659	-0.51333	-1.6796	0.3469	-0.54028	-0.12669	-1.3181	-0.0592	0.0182	-0.0073	-0.0462	0.0165	0.9585
17.2771	12.8098	779.1431	50.6304	-290.0965	-40.9327	766.051	-0.47732	-2.4986	0.30444	-0.85441	-0.10664	-2.2467	-0.0592	0.0182	-0.0073	-0.0462	0.0165	0.9585
17.2961	18.4677	760.9899	49.3503	-283.7067	-36.8793	741.2115	-0.43261	-3.7279	0.29689	-1.3238	-0.12915	-3.6234	-0.0592	0.0182	-0.0073	-0.0462	0.0165	0.9585
17.315	24.1696	745.0167	48.2575	-278.0359	-32.9784	718.7393	-0.36125	-5.3429	0.33738	-1.9382	-0.21541	-5.4245	-0.0592	0.0182	-0.0073	-0.0462	0.0165	0.9585
17.3339	29.8328	732.9779	47.4757	-273.7324	-29.3833	700.385	-0.23716	-7.1829	0.43803	-2.638	-0.38858	-7.4802	-0.0592	0.0182	-0.0073	-0.0462	0.0165	0.9585
17.3529	35.3249	725.9144	47.1291	-271.1739	-26.2673	687.2181	-0.029622	-8.8957	0.60485	-3.2917	-0.66592	-9.4114	-0.0592	0.0182	-0.0073	-0.0462	0.0165	0.9585
17.3718	40.4756	723.906	47.3072	-270.3772	-23.7922	679.4096	0.29181	-9.8709	0.82929	-3.6695	-1.0452	-10.5563	-0.0592	0.0182	-0.0073	-0.0462	0.0165	0.9585
17.3907	45.0959	725.9724	48.0255	-270.962	-22.0657	676.1388	0.75161	-9.1758	1.086	-3.4206	-1.4997	-9.9018	-0.0592	0.0182	-0.0073	-0.0462	0.0165	0.9585
17.4096	48.9947	730.1632	49.2053	-272.1867	-21.1161	675.6722	1.3558	-5.5255	1.3275	-2.0608	-1.9728	-6.0386	-0.0592	0.0182	-0.0073	-0.0462	0.0165	0.9585
17.4286	51.9783	733.8204	50.6918	-273.0531	-20.9047	675.6094	2.0742	2.6772	1.4755	1.0134	-2.3577	2.8016	-0.0592	0.0182	-0.0073	-0.0462	0.0165	0.9585
17.4475	53.8817	734.0558	52.2608	-272.4914	-21.3161	673.3166	2.8173	17.2003	1.4135	6.4713	-2.4771	18.5877	-0.0592	0.0182	-0.0073	-0.0462	0.0165	0.9585
17.4664	54.6122	728.2638	53.6221	-269.5568	-22.1408	666.3793	3.3832	39.7017	0.98472	14.94	-2.0664	43.184	-0.0592	0.0182	-0.0073	-0.0462	0.0165	0.9585
17.4854	54.1866	714.4974	54.4563	-263.5694	-23.0961	652.9398	3.3119	71.2991	0.017864	26.8423	-0.75179	77.8776	-0.0592	0.0182	-0.0073	-0.0462	0.0165	0.9585
17.5043	52.7228	691.6826	54.4861	-254.1853	-23.8878	631.907	1.8262	111.9538	-1.6226	42.1638	1.911	122.7061	-0.0592	0.0182	-0.0073	-0.0462	0.0165	0.9585
17.5232	50.4187	659.7645	53.5357	-241.4415	-24.2681	603.1012	-1.5885	159.9664	-4.0226	60.2544	6.2031	175.8853	-0.0592	0.0182	-0.0073	-0.0462	0.0165	0.9585
